<svg width="54" height="74" viewBox="0 0 54 74" fill="none" xmlns="http://www.w3.org/2000/svg">
<circle cx="2" cy="2" r="2" fill="#D3AA14" fill-opacity="0.8"/>
<circle cx="12" cy="2" r="2" fill="#D3AA14" fill-opacity="0.8"/>
<circle cx="22" cy="2" r="2" fill="#D3AA14" fill-opacity="0.8"/>
<circle cx="32" cy="2" r="2" fill="#D3AA14" fill-opacity="0.8"/>
<circle cx="42" cy="2" r="2" fill="#D3AA14" fill-opacity="0.8"/>
<circle cx="52" cy="2" r="2" fill="#D3AA14" fill-opacity="0.8"/>
<circle cx="2" cy="16" r="2" fill="#D3AA14" fill-opacity="0.6"/>
<circle cx="12" cy="16" r="2" fill="#D3AA14" fill-opacity="0.6"/>
<circle cx="22" cy="16" r="2" fill="#D3AA14" fill-opacity="0.6"/>
<circle cx="32" cy="16" r="2" fill="#D3AA14" fill-opacity="0.6"/>
<circle cx="42" cy="16" r="2" fill="#D3AA14" fill-opacity="0.6"/>
<circle cx="52" cy="16" r="2" fill="#D3AA14" fill-opacity="0.6"/>
<circle cx="2" cy="30" r="2" fill="#D3AA14" fill-opacity="0.4"/>
<circle cx="12" cy="30" r="2" fill="#D3AA14" fill-opacity="0.4"/>
<circle cx="22" cy="30" r="2" fill="#D3AA14" fill-opacity="0.4"/>
<circle cx="32" cy="30" r="2" fill="#D3AA14" fill-opacity="0.4"/>
<circle cx="42" cy="30" r="2" fill="#D3AA14" fill-opacity="0.4"/>
<circle cx="52" cy="30" r="2" fill="#D3AA14" fill-opacity="0.4"/>
<circle cx="2" cy="44" r="2" fill="#D3AA14" fill-opacity="0.4"/>
<circle cx="12" cy="44" r="2" fill="#D3AA14" fill-opacity="0.4"/>
<circle cx="22" cy="44" r="2" fill="#D3AA14" fill-opacity="0.4"/>
<circle cx="32" cy="44" r="2" fill="#D3AA14" fill-opacity="0.4"/>
<circle cx="42" cy="44" r="2" fill="#D3AA14" fill-opacity="0.4"/>
<circle cx="52" cy="44" r="2" fill="#D3AA14" fill-opacity="0.4"/>
<circle cx="2" cy="58" r="2" fill="#D3AA14" fill-opacity="0.2"/>
<circle cx="12" cy="58" r="2" fill="#D3AA14" fill-opacity="0.2"/>
<circle cx="22" cy="58" r="2" fill="#D3AA14" fill-opacity="0.2"/>
<circle cx="32" cy="58" r="2" fill="#D3AA14" fill-opacity="0.2"/>
<circle cx="42" cy="58" r="2" fill="#D3AA14" fill-opacity="0.2"/>
<circle cx="52" cy="58" r="2" fill="#D3AA14" fill-opacity="0.2"/>
<circle cx="2" cy="72" r="2" fill="#D3AA14" fill-opacity="0.1"/>
<circle cx="12" cy="72" r="2" fill="#D3AA14" fill-opacity="0.1"/>
<circle cx="22" cy="72" r="2" fill="#D3AA14" fill-opacity="0.1"/>
<circle cx="32" cy="72" r="2" fill="#D3AA14" fill-opacity="0.1"/>
<circle cx="42" cy="72" r="2" fill="#D3AA14" fill-opacity="0.1"/>
<circle cx="52" cy="72" r="2" fill="#D3AA14" fill-opacity="0.1"/>
</svg>
